<svg width="173" height="135" viewBox="0 0 173 135" fill="none" xmlns="http://www.w3.org/2000/svg">
<path d="M28.4968 16.875C28.4968 12.3995 30.4985 8.10725 34.0617 4.94257C37.6249 1.7779 42.4576 0 47.4968 0C52.5359 0 57.3686 1.7779 60.9318 4.94257C64.495 8.10725 66.4968 12.3995 66.4968 16.875C66.4968 21.3505 64.495 25.6428 60.9318 28.8074C57.3686 31.9721 52.5359 33.75 47.4968 33.75C42.4576 33.75 37.6249 31.9721 34.0617 28.8074C30.4985 25.6428 28.4968 21.3505 28.4968 16.875ZM42.7468 101.25V126.562C42.7468 131.229 38.5014 135 33.2468 135C27.9921 135 23.7468 131.229 23.7468 126.562V75.8848L17.5421 84.6387C14.7515 88.5938 8.87334 89.7539 4.4499 87.2754C0.0264664 84.7969 -1.33916 79.6025 1.45147 75.6738L13.2968 58.9834C20.689 48.5156 33.603 42.1875 47.4968 42.1875C61.3905 42.1875 74.3046 48.5156 81.6967 58.957L93.5421 75.6738C96.3327 79.6289 94.9967 84.8232 90.5733 87.3018C86.1499 89.7803 80.2717 88.5938 77.4811 84.665L71.2467 75.8848V126.562C71.2467 131.229 67.0014 135 61.7468 135C56.4921 135 52.2468 131.229 52.2468 126.562V101.25H42.7468Z" fill="black"/>
<path d="M126.798 65C126.798 62.3478 128.189 59.8043 130.664 57.9289C133.14 56.0536 136.497 55 139.998 55C143.499 55 146.856 56.0536 149.332 57.9289C151.807 59.8043 153.198 62.3478 153.198 65C153.198 67.6522 151.807 70.1957 149.332 72.0711C146.856 73.9464 143.499 75 139.998 75C136.497 75 133.14 73.9464 130.664 72.0711C128.189 70.1957 126.798 67.6522 126.798 65ZM136.698 115V130C136.698 132.766 133.749 135 130.098 135C126.447 135 123.498 132.766 123.498 130V99.9688L119.187 105.156C117.249 107.5 113.165 108.188 110.092 106.719C107.019 105.25 106.07 102.172 108.009 99.8438L116.238 89.9531C121.374 83.75 130.345 80 139.998 80C149.65 80 158.622 83.75 163.758 89.9375L171.987 99.8438C173.926 102.188 172.998 105.266 169.925 106.734C166.852 108.203 162.768 107.5 160.829 105.172L156.498 99.9688V130C156.498 132.766 153.549 135 149.898 135C146.247 135 143.298 132.766 143.298 130V115H136.698Z" fill="black"/>
</svg>
