<?xml version="1.0" encoding="UTF-8"?>
<svg version="1.1" xmlns="http://www.w3.org/2000/svg" width="1969" height="1516">
<path d="M0 0 C1.6440771 -0.00302957 3.2881528 -0.00692304 4.93222606 -0.01159257 C9.39866579 -0.02177789 13.8650244 -0.0197152 18.33147049 -0.01541197 C23.16874788 -0.0129273 28.0060066 -0.02198043 32.84327698 -0.02944946 C42.30093594 -0.04215112 51.75856644 -0.04399578 61.21623249 -0.0416492 C68.91109418 -0.03986054 76.60594729 -0.04162738 84.30080795 -0.04587364 C85.39923313 -0.04646883 86.49765831 -0.04706402 87.6293691 -0.04767724 C89.86141421 -0.0488891 92.09345931 -0.05010323 94.32550441 -0.05131962 C115.22420985 -0.06217801 136.12289913 -0.06004093 157.02160548 -0.05393478 C176.09742647 -0.04876894 195.17319635 -0.06001531 214.24900724 -0.07903299 C233.88136675 -0.09845399 253.51370214 -0.10665982 273.14607131 -0.10290974 C284.14989967 -0.10100392 295.15368456 -0.10342443 306.15750504 -0.11762428 C315.52695957 -0.12959363 324.89634388 -0.13088127 334.26579948 -0.11883412 C339.03629033 -0.11298374 343.8066531 -0.11173812 348.57713509 -0.12383652 C367.56296528 -0.16872039 386.20994475 -0.15837096 404.96286011 3.26069641 C405.64781595 3.38504794 406.33277178 3.50939948 407.03848386 3.63751924 C410.75007691 4.32619193 414.41938394 5.12104427 418.08786011 6.01069641 C419.70567383 6.39584412 419.70567383 6.39584412 421.35617065 6.78877258 C451.09668746 14.07435561 480.04652614 26.30916446 504.96286011 44.26069641 C505.56517456 44.69462708 506.16748901 45.12855774 506.78805542 45.57563782 C526.5099007 59.86931733 545.06565926 75.87740667 559.96286011 95.26069641 C561.13848511 96.72829407 561.13848511 96.72829407 562.33786011 98.22554016 C580.88463301 121.50944667 594.54495284 148.07548764 603.96286011 176.26069641 C604.21857788 177.00899719 604.47429565 177.75729797 604.73776245 178.52827454 C610.24573837 194.85780315 613.37278321 212.22353766 615.27536011 229.32319641 C615.38980469 230.3177887 615.38980469 230.3177887 615.50656128 231.33247375 C616.01023441 236.57648837 615.99420969 241.80463952 615.97921753 247.0670929 C615.97803673 247.85579521 615.97685593 248.64449753 615.97563934 249.45709991 C615.97257265 251.39163434 615.9678792 253.32616607 615.96286011 255.26069641 C616.58332897 255.26031669 617.20379783 255.25993697 617.84306878 255.25954574 C654.69491853 255.23712134 691.54676727 255.21998651 728.39862246 255.20963108 C732.83287682 255.20838052 737.26713116 255.20708618 741.7013855 255.20576477 C742.58408957 255.20550246 743.46679363 255.20524015 744.37624631 255.20496989 C758.63045222 255.20062986 772.88465406 255.19275155 787.13885757 255.18354362 C801.78730947 255.1741606 816.43575925 255.16863099 831.08421403 255.16660792 C840.10813446 255.16524231 849.13204336 255.16094423 858.15596024 255.15277994 C864.3612278 255.14745503 870.5664895 255.14590505 876.77175917 255.14719503 C880.34086325 255.14782952 883.90994734 255.14692349 887.47904778 255.14149094 C928.38832624 255.08235952 928.38832624 255.08235952 944.83786011 257.51069641 C945.7367395 257.64073059 946.6356189 257.77076477 947.56173706 257.90473938 C999.2983281 265.72773132 1047.18901547 287.92027962 1085.34176636 323.85054016 C1087.91128218 326.2721519 1087.91128218 326.2721519 1090.60348511 328.35444641 C1092.72570847 330.06909045 1094.40186173 331.7420788 1096.15036011 333.82319641 C1098.90177452 337.05492239 1101.7461601 340.16567557 1104.65036011 343.26069641 C1134.81379534 376.48154489 1154.25851888 418.93902914 1163.27536011 462.63569641 C1163.42279663 463.34637268 1163.57023315 464.05704895 1163.72213745 464.78926086 C1164.19615913 467.2730122 1164.58289271 469.76062469 1164.96286011 472.26069641 C1165.13077236 473.35837414 1165.29868461 474.45605187 1165.47168511 475.58699256 C1167.50026538 490.32594388 1167.24961162 505.14687442 1167.22599658 519.99070863 C1167.221788 524.03909488 1167.22924968 528.08746363 1167.23514909 532.13584548 C1167.24387541 539.21663244 1167.24523596 546.29739047 1167.24164581 553.37818146 C1167.23632105 563.9081292 1167.24245191 574.43804912 1167.25072875 584.96799384 C1167.26594465 604.87207044 1167.26767629 624.7761343 1167.26520572 644.6802155 C1167.26337088 660.05382862 1167.26513667 675.42743758 1167.26943016 690.80105019 C1167.27003257 693.01216802 1167.27063377 695.22328586 1167.27123376 697.43440369 C1167.27214105 700.76662197 1167.27304972 704.09884024 1167.27396611 707.43105852 C1167.28239207 738.40047672 1167.28673382 769.36989336 1167.28255939 800.33931255 C1167.28240302 801.50606957 1167.28224664 802.67282658 1167.28208553 803.87493987 C1167.28127978 809.78810888 1167.28043401 815.70127789 1167.27957223 821.6144469 C1167.27940114 822.78875546 1167.27923005 823.96306402 1167.27905378 825.17295769 C1167.27870712 827.54769308 1167.27835859 829.92242848 1167.27800819 832.29716387 C1167.27265169 869.24326945 1167.28058086 906.18935115 1167.29904175 943.13545227 C1167.31977378 984.67518015 1167.33048217 1026.21489323 1167.32646626 1067.75462657 C1167.32607094 1072.18683898 1167.32570939 1076.61905139 1167.32536888 1081.05126381 C1167.32523278 1082.68816498 1167.32523278 1082.68816498 1167.32509394 1084.35813485 C1167.32392967 1100.80673245 1167.33056324 1117.25531507 1167.3411808 1133.70390892 C1167.35324902 1152.41857572 1167.35477308 1171.13320962 1167.34239063 1189.84787693 C1167.33577758 1200.30999024 1167.33735713 1210.77202482 1167.35097915 1221.23413178 C1167.35925771 1228.23660351 1167.35648213 1235.2390166 1167.34500388 1242.24148362 C1167.33878105 1246.22183644 1167.33705856 1250.20203627 1167.34886722 1254.18237992 C1167.52374256 1317.50907653 1148.77726372 1377.78696186 1106.96286011 1426.26069641 C1106.32864136 1427.00577454 1105.69442261 1427.75085266 1105.04098511 1428.51850891 C1093.22984496 1442.02349474 1080.47925782 1454.69488384 1065.96286011 1465.26069641 C1064.8129118 1466.11718707 1063.66317422 1466.97396074 1062.51364136 1467.83100891 C1054.32196484 1473.87163781 1045.80640933 1479.23074712 1036.96286011 1484.26069641 C1036.33105835 1484.62517883 1035.69925659 1484.98966125 1035.04830933 1485.3651886 C1012.02864709 1498.54087807 986.50940562 1507.22426537 960.58786011 1512.57319641 C959.87718384 1512.72063293 959.16650757 1512.86806946 958.43429565 1513.01997375 C941.46689339 1516.25818701 924.58667661 1516.54856068 907.37057209 1516.515172 C904.79670513 1516.51756507 902.22283885 1516.52083231 899.64897397 1516.5248886 C894.05976486 1516.53228966 888.47059392 1516.53235597 882.88138256 1516.52749912 C874.51405532 1516.52026422 866.14676071 1516.52463991 857.77943431 1516.53118047 C843.5150221 1516.54199112 829.25062312 1516.5433435 814.98620796 1516.53948212 C800.5371695 1516.53560203 786.08814089 1516.53606693 771.63910294 1516.54179192 C770.72537633 1516.54215074 769.81164972 1516.54250957 768.87023442 1516.54287927 C765.14855862 1516.54435423 761.42688284 1516.54585863 757.70520707 1516.54740073 C719.95117037 1516.56302579 682.19714043 1516.56571577 644.44310107 1516.56324467 C639.2286099 1516.56290621 634.01411872 1516.56258412 628.79962754 1516.56227899 C627.2459852 1516.56218742 627.2459852 1516.56218742 625.66095615 1516.56209401 C602.69587051 1516.56082152 579.7307858 1516.56342457 556.76570044 1516.56680505 C551.52022976 1516.5675758 546.27475908 1516.56832053 541.02928841 1516.56907007 C538.92402872 1516.56937176 536.81876902 1516.56967364 534.71350933 1516.56997571 C533.1481871 1516.57020023 533.1481871 1516.57020023 531.5512422 1516.57042929 C529.44041244 1516.57073282 527.32958267 1516.5710375 525.2187529 1516.57134333 C465.33179563 1516.58001536 405.44483918 1516.58466098 345.55788136 1516.5803957 C344.44917105 1516.58031764 343.34046074 1516.58023958 342.19815316 1516.58015916 C329.83515006 1516.57928638 317.47214698 1516.57835712 305.10914389 1516.57740853 C303.4348818 1516.57728027 303.4348818 1516.57728027 301.72679624 1516.57714941 C292.45288513 1516.57643866 292.45288513 1516.57643866 288.18511742 1516.57610718 C216.79193476 1516.57057149 145.39876504 1516.57811373 74.00558472 1516.59687805 C56.01624205 1516.60160035 38.02689938 1516.6062809 20.03755665 1516.61071491 C18.37599286 1516.6111249 18.37599286 1516.6111249 16.68086213 1516.61154316 C-17.46477181 1516.61991573 -51.61040467 1516.62459424 -85.75603962 1516.62542248 C-87.36430505 1516.62546203 -87.36430505 1516.62546203 -89.0050607 1516.62550238 C-112.54291368 1516.62604318 -136.08076657 1516.62567065 -159.61861952 1516.62446266 C-168.04101602 1516.62403705 -176.46341253 1516.62367192 -184.88580904 1516.62333322 C-186.98103989 1516.62324792 -189.07627074 1516.62315898 -191.17150159 1516.6230664 C-224.54038469 1516.62161836 -257.909259 1516.62873914 -291.27814 1516.64007036 C-325.82499933 1516.65172563 -360.37184298 1516.65227834 -394.91870239 1516.64022694 C-398.63126071 1516.63897514 -402.34381905 1516.63777165 -406.05637741 1516.63660622 C-406.96748438 1516.63631592 -407.87859134 1516.63602563 -408.81730761 1516.63572654 C-423.22307551 1516.63140717 -437.62882106 1516.63712144 -452.03458544 1516.64704641 C-466.21206519 1516.65660167 -480.38951057 1516.65538435 -494.56698834 1516.64284018 C-502.87000906 1516.63581107 -511.17293075 1516.63687279 -519.47594432 1516.65018857 C-525.65501061 1516.65917088 -531.833968 1516.65235027 -538.01302555 1516.63959899 C-540.4861973 1516.63688527 -542.95938113 1516.63911985 -545.43254147 1516.64710614 C-606.46997562 1516.83065039 -665.60548682 1496.31356008 -712.03713989 1456.26069641 C-712.78221802 1455.62647766 -713.52729614 1454.99225891 -714.29495239 1454.33882141 C-727.79993822 1442.52768127 -740.47132732 1429.77709413 -751.03713989 1415.26069641 C-751.89363055 1414.1107481 -752.75040422 1412.96101052 -753.60745239 1411.81147766 C-759.64808129 1403.61980115 -765.0071906 1395.10424563 -770.03713989 1386.26069641 C-770.40162231 1385.62889465 -770.76610474 1384.9970929 -771.14163208 1384.34614563 C-784.31732155 1361.3264834 -793.00070885 1335.80724192 -798.34963989 1309.88569641 C-798.49707642 1309.17502014 -798.64451294 1308.46434387 -798.79641724 1307.73213196 C-799.27043891 1305.24838063 -799.6571725 1302.76076814 -800.03713989 1300.26069641 C-800.20505214 1299.16301868 -800.3729644 1298.06534095 -800.5459649 1296.93440026 C-802.57454516 1282.19544895 -802.32389141 1267.3745184 -802.30027636 1252.5306842 C-802.29606778 1248.48229794 -802.30352946 1244.43392919 -802.30942887 1240.38554734 C-802.3181552 1233.30476038 -802.31951574 1226.22400236 -802.3159256 1219.14321136 C-802.31060083 1208.61326362 -802.31673169 1198.08334371 -802.32500853 1187.55339899 C-802.34022443 1167.64932238 -802.34195608 1147.74525853 -802.3394855 1127.84117732 C-802.33765067 1112.4675642 -802.33941645 1097.09395524 -802.34370995 1081.72034264 C-802.34431235 1079.5092248 -802.34491355 1077.29810697 -802.34551355 1075.08698913 C-802.34642083 1071.75477086 -802.3473295 1068.42255258 -802.3482459 1065.09033431 C-802.35667185 1034.1209161 -802.3610136 1003.15149946 -802.35683918 972.18208027 C-802.3566828 971.01532325 -802.35652643 969.84856624 -802.35636531 968.64645295 C-802.35555957 962.73328394 -802.3547138 956.82011493 -802.35385201 950.90694592 C-802.35368092 949.73263736 -802.35350984 948.5583288 -802.35333356 947.34843513 C-802.35298691 944.97369974 -802.35263838 942.59896434 -802.35228798 940.22422895 C-802.34693148 903.27812337 -802.35486065 866.33204167 -802.37332153 829.38594055 C-802.39405357 787.84621268 -802.40476195 746.30649959 -802.40074605 704.76676625 C-802.40035072 700.33455384 -802.39998917 695.90234143 -802.39964867 691.47012901 C-802.39951257 689.83322785 -802.39951257 689.83322785 -802.39937372 688.16325797 C-802.39820946 671.71466038 -802.40484303 655.26607775 -802.41546059 638.8174839 C-802.42752881 620.1028171 -802.42905286 601.3881832 -802.41667042 582.67351589 C-802.41005737 572.21140258 -802.41163692 561.749368 -802.42525893 551.28726104 C-802.43353749 544.28478931 -802.43076191 537.28237622 -802.41928367 530.2799092 C-802.41306083 526.29955638 -802.41133835 522.31935655 -802.423147 518.3390129 C-802.60976886 450.75861266 -780.89570364 388.69919713 -735.02542114 338.47163391 C-733.44110169 336.70989558 -731.94322991 334.92980854 -730.47463989 333.07319641 C-727.93891946 330.14736514 -725.25524056 327.72686185 -722.31057739 325.22554016 C-719.82035504 323.07333769 -717.43713564 320.82544467 -715.03713989 318.57319641 C-660.50309054 269.05807743 -591.78856923 255.03610749 -520.49049389 255.14463079 C-516.86097236 255.14901897 -513.23145216 255.14748304 -509.60192871 255.14672852 C-503.33915461 255.14620849 -497.07639106 255.14930018 -490.81361961 255.15496635 C-481.7591153 255.16315291 -472.70461599 255.16570384 -463.65010837 255.16695435 C-448.95367655 255.16913372 -434.25725032 255.17576336 -419.56082153 255.18525696 C-405.29910306 255.19446006 -391.03738613 255.20152666 -376.77566528 255.20576477 C-375.45323454 255.20615886 -375.45323454 255.20615886 -374.10408803 255.2065609 C-369.6805022 255.2078661 -365.25691636 255.20912977 -360.83333051 255.21037281 C-324.23459635 255.22071067 -287.63586856 255.23829838 -251.03713989 255.26069641 C-251.04271408 254.10642654 -251.04828827 252.95215668 -251.05403137 251.76290894 C-251.05854057 250.22644589 -251.06291256 248.68998244 -251.06716919 247.15351868 C-251.07119499 246.3953611 -251.07522079 245.63720352 -251.07936859 244.85607147 C-251.09239578 238.57347119 -250.65847423 232.43073185 -249.84963989 226.19819641 C-249.71509399 225.14293762 -249.5805481 224.08767883 -249.44192505 223.0004425 C-245.76788309 195.58580975 -238.27501225 169.12073521 -226.03713989 144.26069641 C-225.63801392 143.43940247 -225.23888794 142.61810852 -224.82766724 141.77192688 C-218.30926813 128.47379536 -210.7957874 116.19781894 -202.03713989 104.26069641 C-201.56808228 103.62051575 -201.09902466 102.98033508 -200.61575317 102.320755 C-193.45375997 92.65709331 -185.38212297 83.90712379 -177.03713989 75.26069641 C-176.13737427 74.31968079 -175.23760864 73.37866516 -174.31057739 72.40913391 C-168.58256678 66.53565002 -162.48531748 61.32525694 -156.03713989 56.26069641 C-155.05100708 55.46921204 -154.06487427 54.67772766 -153.04885864 53.86225891 C-109.71434427 19.6479599 -55.30980521 -0.14717774 0 0 Z M124.96286011 437.26069641 C123.33549927 437.46952454 123.33549927 437.46952454 121.67526245 437.68257141 C94.19701297 441.23504897 67.32651879 447.81655892 40.96286011 456.26069641 C40.07630737 456.54380676 39.18975464 456.82691711 38.27633667 457.11860657 C18.61479272 463.48864257 -0.67356648 471.56534948 -18.97024536 481.18013 C-21.31857093 482.40782774 -23.6794447 483.60952362 -26.04104614 484.81147766 C-59.40098186 501.89678174 -89.91928314 523.53257525 -118.03713989 548.26069641 C-118.95237427 549.06249329 -119.86760864 549.86429016 -120.81057739 550.69038391 C-127.32034042 556.52865276 -133.55242432 562.64965243 -139.75881958 568.80714417 C-141.18095284 570.21737499 -142.60703278 571.62362236 -144.03323364 573.02973938 C-149.39753317 578.38733353 -154.36542593 583.90131558 -159.08230591 589.83833313 C-160.90957867 592.10262692 -162.81027704 594.25195725 -164.78713989 596.38569641 C-225.70410689 664.31294929 -260.1729261 756.88265723 -269.03713989 853.26069641 C-269.10916626 854.09391418 -269.18119263 854.92713196 -269.25540161 855.78559875 C-273.97382207 913.12003944 -265.61883595 971.66490339 -248.03713989 1026.26069641 C-247.61247437 1027.58835022 -247.61247437 1027.58835022 -247.17922974 1028.94282532 C-231.49643603 1077.35818427 -206.60003866 1123.36620609 -175.03713989 1163.26069641 C-174.24315796 1164.26664856 -174.24315796 1164.26664856 -173.43313599 1165.29292297 C-167.34732976 1172.96842529 -161.12726644 1180.46423538 -154.45120239 1187.63569641 C-152.56138692 1189.69064139 -150.73698398 1191.77179321 -148.91995239 1193.88960266 C-144.71419599 1198.71022912 -140.236754 1203.24716003 -135.71389771 1207.76924133 C-134.29794042 1209.18737925 -132.890157 1210.61366306 -131.48245239 1212.03999329 C-126.0695471 1217.46420688 -120.51265014 1222.4997689 -114.50564575 1227.25971985 C-112.02211876 1229.27287257 -109.68256157 1231.38836773 -107.34963989 1233.57319641 C-101.31300151 1239.0584568 -94.79527683 1243.84898827 -88.21975708 1248.66059875 C-86.01877463 1250.27416016 -83.82857197 1251.90162718 -81.63870239 1253.53022766 C-71.44553538 1261.06032507 -60.96893774 1267.85730275 -50.03713989 1274.26069641 C-49.2293811 1274.73861633 -48.42162231 1275.21653625 -47.58938599 1275.7089386 C5.52206782 1307.06526295 63.8045034 1327.12861133 124.96286011 1335.26069641 C126.07822144 1335.41167786 127.19358276 1335.5626593 128.34274292 1335.71821594 C164.9685384 1340.45087728 203.38641046 1340.37946775 239.96286011 1335.26069641 C241.01005219 1335.11504242 241.01005219 1335.11504242 242.07839966 1334.96644592 C308.11167885 1325.70058357 373.30224819 1303.1642418 428.81491089 1265.70991516 C431.10596393 1264.16414444 433.40751587 1262.63470488 435.70895386 1261.10444641 C445.27915471 1254.69458841 454.44336587 1247.95517 463.3197937 1240.61567688 C464.8647876 1239.34157344 466.42317179 1238.08375698 467.98239136 1236.82710266 C473.2603323 1232.56784123 478.37508145 1228.1728163 483.38082886 1223.59663391 C484.79345552 1222.31864489 486.21230747 1221.04697672 487.65890503 1219.80757141 C493.16497325 1215.08308639 498.34247889 1210.06725936 503.47140503 1204.93745422 C504.88954295 1203.52149694 506.31582675 1202.11371352 507.74215698 1200.70600891 C513.16835341 1195.29112492 518.20566038 1189.73178285 522.96798706 1183.72309875 C524.96008779 1181.26411847 527.05127921 1178.9460894 529.21286011 1176.63569641 C596.13813457 1102.95969861 631.07577441 999.38236442 634.68551636 863.71772766 C630.67084762 782.15408664 604.31208257 699.19778826 556.96286011 632.26069641 C556.47640015 631.56605286 555.98994019 630.8714093 555.48873901 630.15571594 C548.19096047 619.75984529 540.5061595 609.76743972 532.39401245 599.99604797 C531.12647848 598.45909276 529.88086803 596.90411475 528.63864136 595.34663391 C519.01055416 583.28038046 508.13197904 572.33680456 497.27536011 561.38569641 C496.42103394 560.51831848 495.56670776 559.65094055 494.68649292 558.75727844 C489.51514704 553.57899515 484.15992046 548.81649549 478.43380737 544.25801086 C476.07563984 542.35185845 473.8240201 540.37015124 471.58786011 538.32319641 C465.97536189 533.29471476 460.00081917 528.75929402 453.96286011 524.26069641 C453.29077515 523.7587677 452.61869019 523.25683899 451.92623901 522.73970032 C434.27211094 509.61538289 415.7572814 498.31194824 396.51461792 487.67378235 C394.35289134 486.47668386 392.19963295 485.26624305 390.04879761 484.04975891 C338.83599093 455.72664912 279.85968857 440.94159607 221.96286011 435.26069641 C221.0484314 435.16353333 220.13400269 435.06637024 219.19186401 434.96626282 C207.36047608 433.86295073 195.4595496 434.0177076 183.58786011 434.01069641 C182.4067868 434.00968933 181.2257135 434.00868225 180.0088501 434.00764465 C161.45009579 434.01833708 143.35890661 434.72217877 124.96286011 437.26069641 Z " fill="#000000" transform="translate(802.0371398925781,-0.2606964111328125)"/>
<path d="M0 0 C0.87829971 -0.00701431 1.75659943 -0.01402863 2.66151428 -0.02125549 C5.47882281 -0.03865156 8.29592099 -0.04510748 11.11328125 -0.046875 C12.07697632 -0.04754974 13.04067139 -0.04822449 14.03356934 -0.04891968 C28.3824146 -0.03295131 42.30421041 0.46421479 56.42578125 3.203125 C57.32425781 3.36409668 58.22273438 3.52506836 59.1484375 3.69091797 C82.55056362 7.92624712 105.12201737 15.67283465 126.42578125 26.203125 C127.17005371 26.56905762 127.91432617 26.93499023 128.68115234 27.31201172 C187.23285419 56.41440467 233.08034953 110.00149375 254.57177734 171.48144531 C259.28107904 185.50836318 263.02176393 199.60327913 265.42578125 214.203125 C265.74482422 216.12705078 265.74482422 216.12705078 266.0703125 218.08984375 C275.95866343 282.75539048 259.95342929 351.43839035 221.67163086 404.53955078 C215.45052231 412.9936391 208.75406466 420.97550578 201.6796875 428.7265625 C200.15156165 430.40564705 198.63892267 432.09893323 197.140625 433.8046875 C193.22699454 438.24863839 189.29300022 442.4315564 184.7578125 446.2421875 C182.9356375 447.77440165 181.15115278 449.32982338 179.375 450.9140625 C166.49673659 462.31770137 152.3774978 471.73544172 137.42578125 480.203125 C136.72146973 480.6038623 136.0171582 481.00459961 135.29150391 481.41748047 C97.64531366 502.61156559 55.32580109 512.68805388 12.30078125 512.515625 C10.88146301 512.51289078 10.88146301 512.51289078 9.43347168 512.51010132 C-4.7752124 512.46406271 -18.59223437 511.91496211 -32.57421875 509.203125 C-33.47269531 509.04215332 -34.37117187 508.88118164 -35.296875 508.71533203 C-70.59050109 502.32787293 -105.37411874 488.16837666 -134.57421875 467.203125 C-135.54230469 466.50832031 -136.51039063 465.81351563 -137.5078125 465.09765625 C-152.94335786 453.75684594 -168.35553539 441.01282381 -180.57421875 426.203125 C-181.37859375 425.28660156 -182.18296875 424.37007812 -183.01171875 423.42578125 C-198.8310484 405.34491153 -211.46045186 384.96150139 -221.57421875 363.203125 C-221.90131836 362.50058594 -222.22841797 361.79804687 -222.56542969 361.07421875 C-231.73150372 341.0787636 -238.00284578 319.89244247 -241.57421875 298.203125 C-241.78691406 296.92050781 -241.99960937 295.63789062 -242.21875 294.31640625 C-252.26685625 228.60612866 -235.54681433 159.47980719 -196.3203125 105.875 C-190.83064017 98.49513153 -185.05428834 91.48838457 -178.84765625 84.69921875 C-177.35602334 83.06149808 -175.88131094 81.40817077 -174.42578125 79.73828125 C-132.35612688 31.66952455 -63.70957251 0.34321999 0 0 Z " fill="#000000" transform="translate(972.57421875,629.796875)"/>
</svg>
