<svg width="96" height="96" viewBox="0 0 96 96" fill="none" xmlns="http://www.w3.org/2000/svg">
<g clip-path="url(#clip0_7_213)">
<path d="M87 48C87 37.6566 82.8911 27.7368 75.5772 20.4228C68.2632 13.1089 58.3434 9 48 9C37.6566 9 27.7368 13.1089 20.4228 20.4228C13.1089 27.7368 9 37.6566 9 48C9 58.3434 13.1089 68.2632 20.4228 75.5772C27.7368 82.8911 37.6566 87 48 87C58.3434 87 68.2632 82.8911 75.5772 75.5772C82.8911 68.2632 87 58.3434 87 48ZM0 48C0 35.2696 5.05713 23.0606 14.0589 14.0589C23.0606 5.05713 35.2696 0 48 0C60.7304 0 72.9394 5.05713 81.9411 14.0589C90.9429 23.0606 96 35.2696 96 48C96 60.7304 90.9429 72.9394 81.9411 81.9411C72.9394 90.9429 60.7304 96 48 96C35.2696 96 23.0606 90.9429 14.0589 81.9411C5.05713 72.9394 0 60.7304 0 48ZM33.3 59.6438C36.15 62.7188 41.025 66 48 66C54.975 66 59.85 62.7188 62.7 59.6438C64.3875 57.825 67.2375 57.6938 69.0562 59.3813C70.875 61.0688 71.0063 63.9188 69.3188 65.7375C65.1938 70.2 58.0688 75 48.0188 75C37.9688 75 30.825 70.2188 26.7188 65.7375C25.0312 63.9188 25.1437 61.0688 26.9812 59.3813C28.8187 57.6938 31.65 57.8063 33.3375 59.6438H33.3ZM27.075 39C27.075 37.4087 27.7071 35.8826 28.8324 34.7574C29.9576 33.6321 31.4837 33 33.075 33C34.6663 33 36.1924 33.6321 37.3176 34.7574C38.4429 35.8826 39.075 37.4087 39.075 39C39.075 40.5913 38.4429 42.1174 37.3176 43.2426C36.1924 44.3679 34.6663 45 33.075 45C31.4837 45 29.9576 44.3679 28.8324 43.2426C27.7071 42.1174 27.075 40.5913 27.075 39ZM63.075 33C64.6663 33 66.1924 33.6321 67.3176 34.7574C68.4429 35.8826 69.075 37.4087 69.075 39C69.075 40.5913 68.4429 42.1174 67.3176 43.2426C66.1924 44.3679 64.6663 45 63.075 45C61.4837 45 59.9576 44.3679 58.8324 43.2426C57.7071 42.1174 57.075 40.5913 57.075 39C57.075 37.4087 57.7071 35.8826 58.8324 34.7574C59.9576 33.6321 61.4837 33 63.075 33Z" fill="black"/>
</g>
<defs>
<clipPath id="clip0_7_213">
<rect width="96" height="96" fill="white"/>
</clipPath>
</defs>
</svg>
