<svg width="265" height="61" viewBox="0 0 265 61" fill="none" xmlns="http://www.w3.org/2000/svg">
<path d="M45.5087 2.9375C42.4618 -0.96875 37.5137 -0.96875 34.4668 2.9375L3.26679 42.9375C1.02429 45.8125 0.366165 50.0937 1.58492 53.8437C2.80367 57.5937 5.63117 60.0312 8.79992 60.0312H71.1999C74.3443 60.0312 77.1962 57.5937 78.4149 53.8437C79.6337 50.0937 78.9512 45.8125 76.733 42.9375L45.533 2.9375H45.5087Z" fill="black"/>
<path d="M135.509 2.9375C132.462 -0.96875 127.514 -0.96875 124.467 2.9375L93.2668 42.9375C91.0243 45.8125 90.3662 50.0937 91.5849 53.8437C92.8037 57.5937 95.6312 60.0312 98.7999 60.0312H161.2C164.344 60.0312 167.196 57.5937 168.415 53.8437C169.634 50.0937 168.951 45.8125 166.733 42.9375L135.533 2.9375H135.509Z" fill="black"/>
<path d="M230.509 2.9375C227.462 -0.96875 222.514 -0.96875 219.467 2.9375L188.267 42.9375C186.024 45.8125 185.366 50.0937 186.585 53.8437C187.804 57.5937 190.631 60.0312 193.8 60.0312H256.2C259.344 60.0312 262.196 57.5937 263.415 53.8437C264.634 50.0937 263.951 45.8125 261.733 42.9375L230.533 2.9375H230.509Z" fill="black"/>
</svg>
