<?xml version="1.0" standalone="no"?>
<!DOCTYPE svg PUBLIC "-//W3C//DTD SVG 20010904//EN"
 "http://www.w3.org/TR/2001/REC-SVG-20010904/DTD/svg10.dtd">
<svg version="1.0" xmlns="http://www.w3.org/2000/svg"
 width="256.000000pt" height="256.000000pt" viewBox="0 0 256.000000 256.000000"
 preserveAspectRatio="xMidYMid meet">

<g transform="translate(0.000000,256.000000) scale(0.100000,-0.100000)"
fill="#000000" stroke="none">
<path d="M1233 1933 c-53 -121 -533 -1297 -533 -1308 0 -3 31 -5 68 -5 l69 0
110 272 109 273 250 5 c264 5 275 7 313 56 41 52 31 87 -110 425 -72 173 -133
320 -136 327 -3 7 -25 12 -60 12 l-54 0 -26 -57z m100 -200 c36 -88 169 -409
174 -420 4 -10 -38 -13 -191 -13 -108 0 -196 3 -196 8 0 15 184 462 191 462 4
0 14 -17 22 -37z"/>
<path d="M1750 1940 l0 -50 65 0 65 0 0 50 0 50 -65 0 -65 0 0 -50z"/>
<path d="M1045 1903 c-108 -44 -255 -169 -312 -265 l-22 -37 22 -14 c12 -8 36
-21 53 -30 l31 -16 31 47 c37 57 92 112 156 155 37 25 52 44 72 92 14 33 28
66 31 73 7 16 -13 15 -62 -5z"/>
<path d="M1750 1422 c0 -289 -3 -358 -16 -403 -80 -274 -408 -363 -620 -167
-24 23 -46 39 -48 37 -2 -2 -14 -28 -27 -58 l-23 -54 41 -36 c273 -243 713
-99 808 265 12 47 15 129 15 411 l0 353 -65 0 -65 0 0 -348z"/>
<path d="M652 1438 c-6 -24 -14 -67 -18 -95 l-7 -53 61 0 c67 0 63 -6 78 101
l6 46 -49 19 c-26 10 -51 20 -54 22 -4 2 -11 -16 -17 -40z"/>
<path d="M1305 1056 c-13 -13 -27 -36 -31 -50 -8 -32 12 -82 40 -101 58 -41
146 7 146 80 0 80 -100 126 -155 71z"/>
</g>
</svg>
